<svg width="14" height="14" viewBox="0 0 14 14" fill="none" xmlns="http://www.w3.org/2000/svg">
<path d="M12.3892 -9.65041e-05L4.31765 0.0280663C4.10388 0.0325272 3.89983 0.12076 3.74944 0.273762C3.59906 0.426765 3.51437 0.632294 3.51363 0.846083C3.51288 1.05987 3.59613 1.26482 3.74546 1.41677C3.89478 1.56873 4.09822 1.65554 4.31196 1.65851L10.4152 1.63721L0.240832 11.8116C0.0873917 11.965 0.000766153 12.1727 1.16503e-05 12.3889C-0.000743184 12.6052 0.0844355 12.8122 0.236809 12.9646C0.389182 13.117 0.596268 13.2022 0.812511 13.2014C1.02875 13.2007 1.23644 13.114 1.38988 12.9606L11.5642 2.78626L11.5429 8.88947C11.5407 8.99773 11.56 9.1052 11.5998 9.20561C11.6395 9.30603 11.699 9.39738 11.7746 9.47433C11.8502 9.55128 11.9405 9.6123 12.0402 9.65381C12.1399 9.69533 12.247 9.71652 12.3552 9.71614C12.4635 9.71576 12.5708 9.69383 12.6708 9.65161C12.7707 9.6094 12.8615 9.54775 12.9376 9.47027C13.0138 9.39279 13.0738 9.30102 13.1143 9.20033C13.1548 9.09963 13.1749 8.99203 13.1734 8.88378L13.2015 0.81228C13.2022 0.59608 13.1171 0.389044 12.9647 0.236701C12.8124 0.0843573 12.6054 -0.000818395 12.3892 -9.65041e-05Z" fill="white"/>
</svg>
