<svg width="26" height="26" viewBox="0 0 26 26" fill="none" xmlns="http://www.w3.org/2000/svg">
<path d="M23.9993 18.4712V21.7831C24.0006 22.0906 23.9375 22.3949 23.814 22.6766C23.6906 22.9583 23.5096 23.2112 23.2826 23.419C23.0556 23.6269 22.7876 23.7851 22.4958 23.8836C22.2039 23.9821 21.8947 24.0187 21.5879 23.991C18.1841 23.6219 14.9145 22.4611 12.0418 20.6019C9.36914 18.9069 7.10319 16.6455 5.40487 13.9781C3.53545 11.0981 2.37207 7.81909 2.00898 4.40674C1.98134 4.10146 2.01769 3.79378 2.11572 3.50329C2.21376 3.2128 2.37132 2.94586 2.57839 2.71947C2.78546 2.49308 3.03749 2.31221 3.31843 2.18836C3.59938 2.06451 3.90309 2.0004 4.21023 2.00011H7.52869C8.06551 1.99483 8.58594 2.18456 8.99297 2.53391C9.4 2.88326 9.66586 3.36841 9.74099 3.89892C9.88106 4.9588 10.1408 5.99946 10.5153 7.00106C10.6641 7.39619 10.6963 7.82562 10.6081 8.23847C10.5199 8.65131 10.3149 9.03026 10.0175 9.33042L8.61272 10.7324C10.1874 13.4963 12.4803 15.7847 15.2496 17.3562L16.6545 15.9542C16.9552 15.6574 17.3349 15.4528 17.7486 15.3648C18.1622 15.2767 18.5925 15.3089 18.9884 15.4574C19.992 15.8312 21.0348 16.0904 22.0967 16.2302C22.6341 16.3058 23.1248 16.5759 23.4756 16.9892C23.8264 17.4024 24.0128 17.9298 23.9993 18.4712Z" stroke="white" stroke-width="2.2" stroke-linecap="round" stroke-linejoin="round"/>
</svg>
