<?xml version="1.0" encoding="utf-8"?>
<!-- Generator: Adobe Illustrator 25.0.0, SVG Export Plug-In . SVG Version: 6.00 Build 0)  -->
<svg version="1.1" id="Layer_1" xmlns="http://www.w3.org/2000/svg" xmlns:xlink="http://www.w3.org/1999/xlink" x="0px" y="0px"
	 viewBox="0 0 23.6 19.2" style="enable-background:new 0 0 23.6 19.2;" xml:space="preserve">
<style type="text/css">
	.st0{fill:#FFFFFF;}
</style>
<path class="st0" d="M20.1,5.4c0,0.2,0,0.4,0,0.5c0,5.7-4.3,12.2-12.2,12.2c-2.4,0-4.7-0.7-6.6-1.9c0.3,0,0.7,0.1,1,0.1
	c2,0,3.9-0.7,5.3-1.8c-1.9,0-3.5-1.3-4-3c0.3,0.1,0.5,0.1,0.8,0.1c0.4,0,0.8-0.1,1.1-0.2c-2-0.4-3.4-2.1-3.4-4.2c0,0,0,0,0-0.1
	c0.6,0.3,1.2,0.5,1.9,0.5C3,6.9,2.2,5.6,2.2,4.1c0-0.8,0.2-1.5,0.6-2.2c2.1,2.6,5.3,4.3,8.8,4.5c-0.1-0.3-0.1-0.7-0.1-1
	c0-2.4,1.9-4.3,4.3-4.3c1.2,0,2.4,0.5,3.1,1.3c1-0.2,1.9-0.5,2.7-1c-0.3,1-1,1.8-1.9,2.4c0.9-0.1,1.7-0.3,2.5-0.7
	C21.7,4,21,4.7,20.1,5.4z"/>
</svg>
